<svg width="137" height="144" viewBox="0 0 137 144" fill="none" xmlns="http://www.w3.org/2000/svg">
<g clip-path="url(#clip0_18_447)">
<path d="M78.4304 141.059C78.311 141.059 78.1917 141.028 78.0845 140.966L20.1126 106.892C19.9482 106.796 19.8325 106.635 19.7923 106.449C19.7521 106.263 19.7911 106.069 19.9007 105.913L66.5925 39.6164C66.8093 39.3086 67.2343 39.2343 67.5425 39.4509C67.8506 39.6675 67.9249 40.0922 67.7081 40.4001L21.4434 106.093L77.8097 139.223L79.6402 105.376C79.6609 105 79.9775 104.716 80.3575 104.733C80.7338 104.753 81.0212 105.074 81.0017 105.449L79.1104 140.414C79.097 140.651 78.9618 140.865 78.7511 140.977C78.6513 141.032 78.5404 141.059 78.4296 141.059L78.4304 141.059ZM80.8747 95.8893C80.8625 95.8893 80.8503 95.8893 80.8369 95.8881C80.4606 95.8674 80.1732 95.5461 80.1927 95.1713L84.4406 16.6473L73.5954 32.0456C73.3787 32.3534 72.9536 32.4277 72.6455 32.2111C72.3374 31.9945 72.2631 31.5698 72.4799 31.2619L84.6928 13.9229C84.8682 13.6746 85.186 13.5712 85.4735 13.671C85.7609 13.7708 85.9472 14.0482 85.9314 14.3512L81.5544 95.2459C81.5349 95.6085 81.2341 95.8896 80.8748 95.8896L80.8747 95.8893Z" fill="#999999"/>
<path d="M132.992 106.986H94.7586C94.3823 106.986 94.0766 106.68 94.0766 106.304C94.0766 105.928 94.3823 105.623 94.7586 105.623H131.916L105.362 49.2413L29.3813 78.0373C29.0281 78.1712 28.6348 77.9935 28.502 77.6418C28.368 77.2902 28.5458 76.8959 28.8978 76.7633L105.47 47.7436C105.803 47.6183 106.177 47.7679 106.329 48.0904L133.61 106.014C133.709 106.224 133.694 106.473 133.568 106.67C133.444 106.867 133.227 106.986 132.993 106.986L132.992 106.986ZM84.5292 106.986H20.4589C20.2311 106.986 20.018 106.871 19.8913 106.683L6.25106 86.2393C6.13536 86.0665 6.10614 85.8512 6.16946 85.6528C6.23279 85.4557 6.38259 85.2975 6.57745 85.2233L19.3335 80.3885C19.6867 80.2547 20.0801 80.4323 20.2128 80.784C20.3468 81.1357 20.169 81.5299 19.817 81.6626L7.86098 86.193L20.8241 105.623H84.5296C84.9059 105.623 85.2116 105.928 85.2116 106.304C85.2104 106.68 84.9047 106.985 84.5284 106.985L84.5292 106.986Z" fill="#999999"/>
<path d="M6.81841 86.5437C6.65765 86.5437 6.49812 86.4866 6.37145 86.377C6.18146 86.214 6.09742 85.9584 6.15223 85.7138L19.7925 24.3824C19.8327 24.1999 19.9472 24.0417 20.1079 23.9456C20.2687 23.8495 20.4623 23.8239 20.6413 23.8738L51.5634 32.5246C51.9264 32.6256 52.1383 33.0016 52.036 33.3642C51.9349 33.7269 51.5573 33.9386 51.1956 33.8364L20.9666 25.3793L7.75629 84.7731L43.4361 71.2514C43.7881 71.1175 44.1827 71.2952 44.3154 71.6469C44.4494 71.9985 44.2716 72.3928 43.9196 72.5254L7.06128 86.4976C6.98212 86.5268 6.90052 86.5414 6.81893 86.5414L6.81841 86.5437ZM53.2452 68.9493C52.97 68.9493 52.7106 68.7813 52.607 68.51C52.4731 68.1583 52.6509 67.764 53.0028 67.6314L103.529 48.4815L61.0498 36.5965C60.6869 36.4955 60.475 36.1195 60.5773 35.7569C60.6784 35.3943 61.0547 35.1825 61.4176 35.2848L105.896 47.7283C106.18 47.8074 106.381 48.0593 106.394 48.3538C106.407 48.6483 106.23 48.9172 105.954 49.0218L53.4883 68.9066C53.4067 68.9346 53.3239 68.9492 53.2447 68.9492L53.2452 68.9493Z" fill="#999999"/>
<path d="M129.581 144.467C125.444 144.467 122.079 141.105 122.079 136.971C122.079 132.838 125.444 129.476 129.581 129.476C133.718 129.476 137.083 132.838 137.083 136.971C137.083 141.105 133.718 144.467 129.581 144.467ZM129.581 130.838C126.197 130.838 123.443 133.59 123.443 136.971C123.443 140.353 126.196 143.105 129.581 143.105C132.966 143.105 135.719 140.353 135.719 136.971C135.719 133.59 132.966 130.838 129.581 130.838Z" fill="#999999"/>
<path d="M47.7393 14.9915C43.602 14.9915 40.2373 11.6293 40.2373 7.49576C40.2373 3.36224 43.6023 3.8147e-05 47.7393 3.8147e-05C51.8763 3.8147e-05 55.2413 3.36224 55.2413 7.49576C55.2413 11.6293 51.8763 14.9915 47.7393 14.9915ZM47.7393 1.36261C44.355 1.36261 41.601 4.11393 41.601 7.49576C41.601 10.8776 44.3546 13.6289 47.7393 13.6289C51.124 13.6289 53.8776 10.8776 53.8776 7.49576C53.8776 4.11393 51.124 1.36261 47.7393 1.36261Z" fill="#999999"/>
<path d="M112.53 96.7647C112.349 96.7647 112.175 96.6892 112.045 96.5639C111.918 96.4373 111.848 96.2609 111.848 96.0832C111.848 95.9019 111.92 95.7255 112.045 95.5989C112.301 95.347 112.757 95.347 113.01 95.5989C113.139 95.7279 113.21 95.9019 113.21 96.0832C113.21 96.2609 113.139 96.4373 113.01 96.5639C112.884 96.6892 112.71 96.7647 112.53 96.7647V96.7647Z" fill="#999999"/>
<path d="M102.3 96.7647C102.12 96.7647 101.946 96.6892 101.819 96.5639C101.69 96.4373 101.618 96.2609 101.618 96.0832C101.618 95.9019 101.69 95.7255 101.819 95.5989C102.068 95.347 102.528 95.347 102.781 95.5989C102.91 95.7279 102.982 95.9019 102.982 96.0832C102.982 96.2609 102.91 96.4373 102.785 96.5639C102.655 96.6892 102.48 96.7647 102.3 96.7647H102.3Z" fill="#999999"/>
<path d="M92.0707 96.7647C91.8904 96.7647 91.7163 96.6892 91.586 96.5639C91.4593 96.4373 91.3887 96.2609 91.3887 96.0832C91.3887 95.9019 91.4605 95.7291 91.586 95.5989C91.8417 95.347 92.2984 95.347 92.5505 95.5989C92.6796 95.7279 92.7515 95.9019 92.7515 96.0832C92.7515 96.2609 92.6796 96.4373 92.5542 96.5639C92.4251 96.6892 92.2509 96.7647 92.0707 96.7647H92.0707Z" fill="#999999"/>
<path d="M92.0707 86.5436C91.8929 86.5436 91.7163 86.4681 91.586 86.3428C91.4593 86.2162 91.3887 86.0398 91.3887 85.8621C91.3887 85.6808 91.4605 85.508 91.586 85.3778C91.8417 85.1259 92.2984 85.1259 92.5505 85.3778C92.6796 85.5068 92.7515 85.6808 92.7515 85.8621C92.7515 86.0398 92.6796 86.2162 92.5505 86.3428C92.4251 86.4681 92.2485 86.5436 92.0707 86.5436V86.5436Z" fill="#999999"/>
<path d="M92.0707 76.323C91.8905 76.323 91.7163 76.2476 91.5896 76.1222C91.4605 75.9957 91.3887 75.8192 91.3887 75.6416C91.3887 75.4603 91.4605 75.2875 91.586 75.1572C91.8417 74.9054 92.2984 74.9054 92.5505 75.1572C92.6796 75.2862 92.7515 75.4603 92.7515 75.6416C92.7515 75.8192 92.6796 75.9957 92.5542 76.1222C92.4251 76.2476 92.2509 76.323 92.0707 76.323Z" fill="#999999"/>
<path d="M0 133.564H6.82013V140.378H0L0 133.564Z" fill="#999999"/>
<path d="M10.2295 133.564H17.0496V140.378H10.2295V133.564Z" fill="#999999"/>
<path d="M20.459 133.564H27.2791V140.378H20.459V133.564Z" fill="#999999"/>
<path d="M30.688 133.564H37.5081V140.378H30.688V133.564Z" fill="#999999"/>
</g>
<defs>
<clipPath id="clip0_18_447">
<rect width="137" height="144" fill="white"/>
</clipPath>
</defs>
</svg>
