<svg width="640" height="507" viewBox="0 0 640 507" fill="none" xmlns="http://www.w3.org/2000/svg">
<g clip-path="url(#clip0_46_1305)">
<path d="M251.637 382.893C216.005 402.513 180.755 422.121 143.682 438.061C113.216 451.161 82.2987 463.16 49.3921 468.853C36.6715 471.054 23.9017 471.847 11.3361 467.669C3.38808 465.026 -0.855273 458.193 0.144285 449.876C2.03366 434.156 9.62919 420.804 18.136 408.031C30.2868 389.788 45.3495 373.949 60.9355 358.621C61.849 357.723 62.7152 356.569 64.6632 356.844C66.2141 359.451 64.3538 361.387 62.9621 363.277C55.4347 373.501 48.451 384.058 43.8762 395.973C42.3369 399.981 41.1992 404.222 40.5031 408.46C39.2081 416.342 43.9949 423.152 52.2287 425.874C62.0387 429.118 71.9717 428.446 81.873 426.583C98.4321 423.469 114.605 418.853 130.515 413.352C137.995 410.766 143.427 405.176 148.751 399.671C161.166 386.833 173.949 374.449 188.866 364.469C205.844 353.111 223.901 343.918 243.254 337.349C256.976 332.691 270.804 328.603 285.275 326.641C296.898 325.066 304.284 314.342 304.317 300.967C304.405 265.323 304.527 229.68 304.674 194.036C304.7 187.717 304.425 181.396 304.365 175.083C304.278 165.769 298.198 155.658 285.977 156.437C283.322 156.607 280.625 156.231 277.983 156.481C272.895 156.961 268.81 155.56 265.97 151.108C264.558 148.894 262.313 148.604 259.868 148.427C250.711 147.765 246.797 142.319 248.877 133.455C249.58 130.458 251.858 128.653 254.423 128.294C260.212 127.483 264.368 124.793 268.19 120.368C271.309 116.755 276.443 117.31 280.925 117.536C283.588 117.671 286.246 118.09 288.886 117.594C291.107 117.177 293.913 117.145 293.688 113.761C293.509 111.06 291.885 109.598 289.127 109.401C288.139 109.33 287.094 109.214 286.201 108.828C283.505 107.659 282.044 105.341 281.901 102.578C281.749 99.6334 283.489 97.5187 286.311 96.605C287.708 96.1525 289.266 95.8428 290.712 95.9575C296.64 96.4276 301.402 95.4144 305.458 90.0506C309.554 84.6347 333.298 85.6442 336.592 90.9209C339.043 94.848 342.052 96.4011 346.513 95.9794C348.649 95.7774 350.9 95.778 352.98 96.2314C356.228 96.9393 359.094 98.5989 359.106 102.431C359.118 106.329 356.595 108.353 353.004 109.3C350.464 109.969 345.998 108.191 346.574 113.2C347.075 117.548 351.215 117.266 354.414 117.779C355.717 117.988 357.092 117.995 358.406 117.844C366.276 116.938 373.317 117.683 377.866 125.55C379.211 127.877 382.506 127.941 384.999 128.821C390.234 130.669 392.979 134.934 392.365 140.368C391.888 144.586 388.088 148.068 382.864 148.316C379.563 148.472 377.193 149.584 375.187 152.122C372.522 155.492 369.011 156.791 364.627 156.523C359.479 156.208 354.298 156.414 349.131 156.429C338.728 156.458 328.355 166.779 328.048 177.149C326.678 223.462 327.751 269.787 327.205 316.103C327.15 320.776 327.833 322.947 333.543 323.363C383.88 327.03 428.457 345.602 468.109 376.495C471.132 378.85 474.175 381.18 477.199 383.534C482.844 387.93 489.804 387.456 494.44 381.87C508.212 365.275 518.137 346.492 525.214 326.192C533.779 301.623 538.649 276.386 537.702 250.273C537.371 241.142 536.34 232.021 535.263 222.939C534.91 219.958 535.439 217.647 537.493 215.699C542.806 210.66 547.932 205.408 554.377 201.698C560.43 198.215 566.268 199.856 569.281 206.199C571.751 211.397 572.454 217.064 573.099 222.669C578.828 272.416 571.032 319.995 549.103 365C533.981 396.033 513.46 422.973 487.011 445.546C452.603 474.91 413.259 493.654 369.145 502.488C328.356 510.657 288.046 507.85 248.235 495.955C226.545 489.475 206.088 480.38 186.806 468.576C182.961 466.222 179.314 463.599 175.987 460.543C173.762 458.499 173.524 456.477 176.435 455.035C185.234 450.677 193.871 445.916 203.324 443.051C210.891 440.758 217.836 443.302 224.545 446.419C245.962 456.371 267.997 464.287 291.687 466.52C321.722 469.351 351.585 469.188 380.751 460.011C383.512 459.142 387.521 459.06 388.194 455.833C388.872 452.582 385.222 450.983 382.989 449.112C370.415 438.576 356.556 431.162 339.549 431.562C332.425 431.73 325.906 434.455 319.204 436.376C310.545 438.858 302.785 437.495 295.813 431.619C288.259 425.253 286.494 414.127 291.725 404.788C296.347 396.533 308.454 391.321 316.661 395.521C333.514 404.147 349.88 402.47 366.004 394.557C374.055 390.605 381.167 384.852 387.825 378.803C393.624 373.534 392.837 369.806 385.919 366.344C372.608 359.683 358.388 356.756 343.663 355.347C330.487 354.086 317.392 354.65 304.26 355.548C299.365 355.882 294.689 356.858 290.555 359.639C278.098 368.016 264.768 374.929 251.637 382.893Z" fill="#F1F1F3"/>
<path d="M77.9033 176.234C93.5852 130.025 119.154 90.9175 156.32 59.6667C187.336 33.5871 222.592 15.6363 262.07 6.65999C293.13 -0.402072 324.542 -1.95597 356.325 2.51677C387.781 6.94343 417.262 16.8132 444.8 32.2832C477.325 50.5548 504.662 74.9166 526.804 105.016C527.791 106.357 528.661 107.821 529.828 108.983C532.518 111.664 531.698 113.998 529.411 116.32C525.672 120.117 521.932 123.913 518.197 127.715C510.372 135.679 502.629 135.193 495.95 126.266C483.1 109.09 468.582 93.5035 451.083 81.0159C421.952 60.2281 390.236 45.6037 354.374 40.6072C295.986 32.4722 242.007 44.4068 193.957 78.1823C148.306 110.271 119.277 154.335 107.748 209.393C99.855 247.086 102.329 284.189 114.305 320.656C120.046 338.139 128.543 354.369 138.522 369.818C142.785 376.418 141.946 378.804 134.454 381.589C127.561 384.151 120.38 385.835 113.197 386.995C108.301 387.786 103.848 385.298 101.089 380.719C86.866 357.115 76.6477 331.924 71.2762 304.857C62.6868 261.576 64.3591 218.791 77.9033 176.234Z" fill="#E60000"/>
<path d="M473.858 230.079C437.859 256.832 400.748 281.247 362.526 305.138C361.361 301.27 363.251 300.412 364.585 299.386C396.785 274.605 428.7 249.464 459.254 222.662C485.065 200.021 509.672 176.138 532.581 150.528C544.018 137.742 555.938 125.344 565.525 111.057C572.759 100.276 579.741 89.2961 581.389 75.8891C582.635 65.7529 578.985 59.572 569.33 56.2992C560.639 53.3528 551.883 54.4236 543.156 55.9584C536.112 57.1971 529.112 58.6832 522.097 60.0763C520.302 60.4326 518.52 60.8449 516.627 60.1825C516.34 58.0024 518.124 57.3257 519.442 56.6142C549.707 40.2839 581.425 28.9305 616.338 28.9096C635.28 28.8982 642.725 38.4518 638.277 56.9764C634.985 70.6903 627.712 82.4789 619.417 93.5853C594.556 126.871 564.278 154.958 533.185 182.178C514.147 198.846 494.577 214.899 473.858 230.079Z" fill="#E60000"/>
<path d="M212.429 232.759C219.45 241.121 228.997 243.757 238.997 246.205C231.183 250.215 222.468 251.558 215.546 256.835C208.066 262.537 209.106 272.374 204.091 280.103C199.566 262.875 189.939 250.919 171.67 246.779C179.599 243.649 187.046 241.586 192.919 236.058C198.695 230.622 200.362 222.971 204.372 215.589C207.42 221.714 208.426 227.779 212.429 232.759Z" fill="#E60000"/>
</g>
<defs>
<clipPath id="clip0_46_1305">
<rect width="640" height="507" fill="white"/>
</clipPath>
</defs>
</svg>
