<svg width="20" height="20" viewBox="0 0 20 20" fill="none" xmlns="http://www.w3.org/2000/svg">
<path fill-rule="evenodd" clip-rule="evenodd" d="M3.33333 1.53846C2.41286 1.53846 1.66667 2.22725 1.66667 3.07692L1.66667 16.9231C1.66667 17.7727 2.41286 18.4615 3.33333 18.4615H10C10.9205 18.4615 11.6667 17.7727 11.6667 16.9231V13.0769C11.6667 12.6521 12.0398 12.3077 12.5 12.3077C12.9602 12.3077 13.3333 12.6521 13.3333 13.0769V16.9231C13.3333 18.6224 11.8409 20 10 20H3.33333C1.49238 20 -9.93411e-08 18.6224 0 16.9231L6.45717e-07 3.07692C7.45058e-07 1.37759 1.49238 -9.16995e-08 3.33333 0L10 2.75098e-07C11.8409 3.20948e-07 13.3333 1.37759 13.3333 3.07692V6.92308C13.3333 7.34791 12.9602 7.69231 12.5 7.69231C12.0398 7.69231 11.6667 7.34791 11.6667 6.92308V3.07692C11.6667 2.22726 10.9205 1.53846 10 1.53846L3.33333 1.53846ZM8.92259 6.37915C9.24803 6.67955 9.24803 7.1666 8.92259 7.46701L7.01185 9.23077L19.1667 9.23077C19.6269 9.23077 20 9.57517 20 10C20 10.4248 19.6269 10.7692 19.1667 10.7692L7.01184 10.7692L8.92259 12.533C9.24802 12.8334 9.24802 13.3205 8.92259 13.6209C8.59715 13.9213 8.06951 13.9213 7.74408 13.6209L4.41074 10.5439C4.08531 10.2435 4.08531 9.75648 4.41075 9.45607L7.74408 6.37915C8.06952 6.07875 8.59715 6.07875 8.92259 6.37915Z" fill="white"/>
</svg>
