<svg width="26" height="27" viewBox="0 0 26 27" fill="none" xmlns="http://www.w3.org/2000/svg">
<path d="M16.5719 20.6991C19.2558 20.3807 21.8439 19.7497 24.2988 18.8435C22.2633 16.5841 21.0244 13.593 21.0244 10.3125V9.31968C21.0246 9.29648 21.0247 9.27325 21.0247 9.25C21.0247 4.55558 17.2191 0.75 12.5247 0.75C7.83024 0.75 4.02466 4.55558 4.02466 9.25L4.02438 10.3125C4.02438 13.593 2.78546 16.5841 0.75 18.8435C3.20498 19.7498 5.79327 20.3808 8.47743 20.6992M16.5719 20.6991C15.2446 20.8565 13.894 20.9375 12.5244 20.9375C11.155 20.9375 9.80449 20.8565 8.47743 20.6992M16.5719 20.6991C16.7035 21.1091 16.7747 21.5462 16.7747 22C16.7747 24.3472 14.8719 26.25 12.5247 26.25C10.1774 26.25 8.27466 24.3472 8.27466 22C8.27466 21.5463 8.34576 21.1091 8.47743 20.6992" stroke="#999999" stroke-width="1.5" stroke-linecap="round" stroke-linejoin="round"/>
</svg>
