<svg width="24" height="24" viewBox="0 0 24 24" fill="none" xmlns="http://www.w3.org/2000/svg">
<path fill-rule="evenodd" clip-rule="evenodd" d="M11.6875 0C12.2743 0 12.75 0.475697 12.75 1.0625V10.625H22.3125C22.8993 10.625 23.375 11.1007 23.375 11.6875C23.375 12.2743 22.8993 12.75 22.3125 12.75H12.75V22.3125C12.75 22.8993 12.2743 23.375 11.6875 23.375C11.1007 23.375 10.625 22.8993 10.625 22.3125V12.75H1.0625C0.475697 12.75 0 12.2743 0 11.6875C0 11.1007 0.475697 10.625 1.0625 10.625H10.625V1.0625C10.625 0.475697 11.1007 0 11.6875 0Z" fill="white"/>
</svg>
