<svg width="13" height="13" viewBox="0 0 13 13" fill="none" xmlns="http://www.w3.org/2000/svg">
<path fill-rule="evenodd" clip-rule="evenodd" d="M0.219373 0.219592C0.512267 -0.0733018 0.98714 -0.0733014 1.28003 0.219592L6.053 4.99256L10.826 0.219592C11.1189 -0.0733011 11.5937 -0.0733011 11.8866 0.219592C12.1795 0.512485 12.1795 0.987359 11.8866 1.28025L7.11366 6.05322L11.8866 10.8262C12.1795 11.1191 12.1795 11.594 11.8866 11.8869C11.5937 12.1797 11.1189 12.1797 10.826 11.8869L6.053 7.11388L1.28003 11.8869C0.987139 12.1797 0.512265 12.1797 0.219372 11.8869C-0.0735209 11.594 -0.0735208 11.1191 0.219372 10.8262L4.99234 6.05322L0.219373 1.28025C-0.0735202 0.987359 -0.0735206 0.512485 0.219373 0.219592Z" fill="white"/>
</svg>
